<svg width="34" height="28" viewBox="0 0 34 28" fill="none" xmlns="http://www.w3.org/2000/svg">
<path d="M33.6666 8.34699V21.917C33.6667 23.3006 33.1373 24.6317 32.1871 25.6374C31.2369 26.643 29.9379 27.247 28.5566 27.3253L28.2499 27.3337H5.74992C4.36636 27.3337 3.0352 26.8044 2.02953 25.8542C1.02386 24.904 0.419916 23.605 0.341585 22.2237L0.333252 21.917V8.34699L16.4199 16.7737C16.5989 16.8674 16.7979 16.9164 16.9999 16.9164C17.2019 16.9164 17.401 16.8674 17.5799 16.7737L33.6666 8.34699ZM5.74992 0.666992H28.2499C29.5926 0.66683 30.8874 1.16532 31.8833 2.06577C32.8792 2.96622 33.5052 4.20446 33.6399 5.54033L16.9999 14.257L0.359919 5.54033C0.489124 4.25751 1.07167 3.06285 2.00284 2.1711C2.934 1.27934 4.15272 0.74897 5.43992 0.675326L5.74992 0.666992H28.2499H5.74992Z" fill="#111827"/>
</svg>
