<svg width="34" height="34" viewBox="0 0 34 34" fill="none" xmlns="http://www.w3.org/2000/svg">
<path d="M22.4125 23.85L25.2125 21.05C25.5897 20.6776 26.0668 20.4227 26.586 20.3161C27.1053 20.2096 27.6442 20.2562 28.1375 20.4501L31.55 21.8125C32.0486 22.0149 32.476 22.3603 32.7785 22.8052C33.0811 23.2501 33.2451 23.7746 33.25 24.3125V30.5625C33.2471 30.9285 33.1702 31.2901 33.0239 31.6256C32.8775 31.961 32.6648 32.2634 32.3986 32.5145C32.1323 32.7656 31.818 32.9602 31.4745 33.0866C31.131 33.213 30.7656 33.2686 30.4 33.25C6.48755 31.7626 1.66255 11.5126 0.750045 3.76255C0.707686 3.38197 0.746389 2.99674 0.863606 2.63219C0.980822 2.26764 1.1739 1.93204 1.43013 1.64747C1.68636 1.3629 1.99994 1.13581 2.35024 0.981131C2.70054 0.826455 3.07962 0.747701 3.46255 0.750051H9.50005C10.0388 0.751646 10.5648 0.914385 11.0103 1.21734C11.4558 1.52029 11.8005 1.9496 12 2.45005L13.3625 5.86255C13.5629 6.35389 13.614 6.89335 13.5095 7.41357C13.405 7.93378 13.1495 8.41167 12.775 8.78755L9.97505 11.5876C9.97505 11.5876 11.5875 22.5 22.4125 23.85Z" fill="#111827"/>
</svg>
