<svg width="313" height="62" viewBox="0 0 313 62" fill="none" xmlns="http://www.w3.org/2000/svg">
<ellipse cx="31.5" cy="31" rx="31.5" ry="31" fill="#66AB8A"/>
<ellipse cx="94.5" cy="31" rx="31.5" ry="31" fill="#D9EAE1"/>
<path d="M126 0H282C299.121 0 313 13.8792 313 31V31C313 48.1208 299.121 62 282 62H126V0Z" fill="#FFDD85"/>
<path d="M196.437 37L195.483 33.652H191.487L190.533 37H188.481L192.153 24.436H194.907L198.579 37H196.437ZM193.557 26.47H193.413L191.865 31.978H195.105L193.557 26.47ZM206.33 35.416H206.222C205.946 35.98 205.58 36.424 205.124 36.748C204.668 37.06 204.098 37.216 203.414 37.216C202.322 37.216 201.452 36.808 200.804 35.992C200.156 35.176 199.832 33.964 199.832 32.356C199.832 30.748 200.156 29.536 200.804 28.72C201.452 27.904 202.322 27.496 203.414 27.496C204.098 27.496 204.668 27.658 205.124 27.982C205.58 28.294 205.946 28.732 206.222 29.296H206.33V23.68H208.292V37H206.33V35.416ZM204.224 35.614C204.512 35.614 204.782 35.578 205.034 35.506C205.286 35.434 205.508 35.326 205.7 35.182C205.892 35.038 206.042 34.864 206.15 34.66C206.27 34.444 206.33 34.192 206.33 33.904V30.808C206.33 30.52 206.27 30.274 206.15 30.07C206.042 29.854 205.892 29.674 205.7 29.53C205.508 29.386 205.286 29.278 205.034 29.206C204.782 29.134 204.512 29.098 204.224 29.098C203.48 29.098 202.904 29.326 202.496 29.782C202.1 30.238 201.902 30.844 201.902 31.6V33.112C201.902 33.868 202.1 34.474 202.496 34.93C202.904 35.386 203.48 35.614 204.224 35.614ZM211.075 35.416H213.541V29.296H211.075V27.712H215.503V30.178H215.611C215.695 29.854 215.815 29.542 215.971 29.242C216.127 28.942 216.325 28.684 216.565 28.468C216.805 28.24 217.099 28.06 217.447 27.928C217.795 27.784 218.203 27.712 218.671 27.712H219.787V29.584H217.951C217.231 29.584 216.643 29.8 216.187 30.232C215.731 30.652 215.503 31.222 215.503 31.942V35.416H218.869V37H211.075V35.416ZM226.098 37.216C225.39 37.216 224.754 37.102 224.19 36.874C223.626 36.646 223.152 36.322 222.768 35.902C222.384 35.482 222.09 34.978 221.886 34.39C221.682 33.79 221.58 33.118 221.58 32.374C221.58 31.63 221.682 30.958 221.886 30.358C222.102 29.758 222.396 29.248 222.768 28.828C223.152 28.396 223.614 28.066 224.154 27.838C224.694 27.61 225.294 27.496 225.954 27.496C226.602 27.496 227.19 27.61 227.718 27.838C228.246 28.054 228.696 28.366 229.068 28.774C229.44 29.182 229.722 29.668 229.914 30.232C230.118 30.796 230.22 31.42 230.22 32.104V32.842H223.56V33.148C223.56 33.88 223.788 34.48 224.244 34.948C224.7 35.404 225.33 35.632 226.134 35.632C226.734 35.632 227.244 35.506 227.664 35.254C228.096 34.99 228.444 34.642 228.708 34.21L229.932 35.29C229.62 35.83 229.14 36.286 228.492 36.658C227.856 37.03 227.058 37.216 226.098 37.216ZM225.954 28.99C225.606 28.99 225.282 29.05 224.982 29.17C224.694 29.29 224.442 29.464 224.226 29.692C224.022 29.908 223.86 30.166 223.74 30.466C223.62 30.766 223.56 31.096 223.56 31.456V31.582H228.222V31.402C228.222 30.67 228.012 30.088 227.592 29.656C227.184 29.212 226.638 28.99 225.954 28.99ZM236.711 37.216C235.703 37.216 234.833 37.054 234.101 36.73C233.381 36.406 232.799 35.974 232.355 35.434L233.561 34.354C233.969 34.798 234.425 35.14 234.929 35.38C235.445 35.608 236.051 35.722 236.747 35.722C237.383 35.722 237.893 35.614 238.277 35.398C238.673 35.182 238.871 34.846 238.871 34.39C238.871 34.198 238.835 34.036 238.763 33.904C238.691 33.772 238.589 33.664 238.457 33.58C238.325 33.496 238.169 33.43 237.989 33.382C237.821 33.334 237.641 33.298 237.449 33.274L235.973 33.04C235.613 32.992 235.247 32.914 234.875 32.806C234.503 32.698 234.167 32.548 233.867 32.356C233.579 32.152 233.339 31.894 233.147 31.582C232.967 31.27 232.877 30.874 232.877 30.394C232.877 29.446 233.237 28.726 233.957 28.234C234.689 27.742 235.649 27.496 236.837 27.496C237.701 27.496 238.445 27.628 239.069 27.892C239.705 28.144 240.233 28.498 240.653 28.954L239.555 30.106C239.315 29.83 238.973 29.578 238.529 29.35C238.085 29.11 237.497 28.99 236.765 28.99C235.457 28.99 234.803 29.404 234.803 30.232C234.803 30.628 234.941 30.904 235.217 31.06C235.505 31.204 235.841 31.3 236.225 31.348L237.701 31.582C238.073 31.642 238.439 31.72 238.799 31.816C239.171 31.912 239.501 32.062 239.789 32.266C240.089 32.458 240.329 32.71 240.509 33.022C240.701 33.334 240.797 33.73 240.797 34.21C240.797 35.146 240.431 35.884 239.699 36.424C238.979 36.952 237.983 37.216 236.711 37.216ZM247.504 37.216C246.496 37.216 245.626 37.054 244.894 36.73C244.174 36.406 243.592 35.974 243.148 35.434L244.354 34.354C244.762 34.798 245.218 35.14 245.722 35.38C246.238 35.608 246.844 35.722 247.54 35.722C248.176 35.722 248.686 35.614 249.07 35.398C249.466 35.182 249.664 34.846 249.664 34.39C249.664 34.198 249.628 34.036 249.556 33.904C249.484 33.772 249.382 33.664 249.25 33.58C249.118 33.496 248.962 33.43 248.782 33.382C248.614 33.334 248.434 33.298 248.242 33.274L246.766 33.04C246.406 32.992 246.04 32.914 245.668 32.806C245.296 32.698 244.96 32.548 244.66 32.356C244.372 32.152 244.132 31.894 243.94 31.582C243.76 31.27 243.67 30.874 243.67 30.394C243.67 29.446 244.03 28.726 244.75 28.234C245.482 27.742 246.442 27.496 247.63 27.496C248.494 27.496 249.238 27.628 249.862 27.892C250.498 28.144 251.026 28.498 251.446 28.954L250.348 30.106C250.108 29.83 249.766 29.578 249.322 29.35C248.878 29.11 248.29 28.99 247.558 28.99C246.25 28.99 245.596 29.404 245.596 30.232C245.596 30.628 245.734 30.904 246.01 31.06C246.298 31.204 246.634 31.3 247.018 31.348L248.494 31.582C248.866 31.642 249.232 31.72 249.592 31.816C249.964 31.912 250.294 32.062 250.582 32.266C250.882 32.458 251.122 32.71 251.302 33.022C251.494 33.334 251.59 33.73 251.59 34.21C251.59 35.146 251.224 35.884 250.492 36.424C249.772 36.952 248.776 37.216 247.504 37.216Z" fill="#111827"/>
</svg>
