<svg width="313" height="62" viewBox="0 0 313 62" fill="none" xmlns="http://www.w3.org/2000/svg">
<path d="M0 31C0 13.8792 13.8792 0 31 0H187V62H31C13.8792 62 0 48.1208 0 31V31Z" fill="#FFDD85"/>
<path d="M70.4371 37L69.4831 33.652H65.4871L64.5331 37H62.4811L66.1531 24.436H68.9071L72.5791 37H70.4371ZM67.5571 26.47H67.4131L65.8651 31.978H69.1051L67.5571 26.47ZM80.3301 35.416H80.2221C79.9461 35.98 79.5801 36.424 79.1241 36.748C78.6681 37.06 78.0981 37.216 77.4141 37.216C76.3221 37.216 75.4521 36.808 74.8041 35.992C74.1561 35.176 73.8321 33.964 73.8321 32.356C73.8321 30.748 74.1561 29.536 74.8041 28.72C75.4521 27.904 76.3221 27.496 77.4141 27.496C78.0981 27.496 78.6681 27.658 79.1241 27.982C79.5801 28.294 79.9461 28.732 80.2221 29.296H80.3301V23.68H82.2921V37H80.3301V35.416ZM78.2241 35.614C78.5121 35.614 78.7821 35.578 79.0341 35.506C79.2861 35.434 79.5081 35.326 79.7001 35.182C79.8921 35.038 80.0421 34.864 80.1501 34.66C80.2701 34.444 80.3301 34.192 80.3301 33.904V30.808C80.3301 30.52 80.2701 30.274 80.1501 30.07C80.0421 29.854 79.8921 29.674 79.7001 29.53C79.5081 29.386 79.2861 29.278 79.0341 29.206C78.7821 29.134 78.5121 29.098 78.2241 29.098C77.4801 29.098 76.9041 29.326 76.4961 29.782C76.1001 30.238 75.9021 30.844 75.9021 31.6V33.112C75.9021 33.868 76.1001 34.474 76.4961 34.93C76.9041 35.386 77.4801 35.614 78.2241 35.614ZM85.075 35.416H87.541V29.296H85.075V27.712H89.503V30.178H89.611C89.695 29.854 89.815 29.542 89.971 29.242C90.127 28.942 90.325 28.684 90.565 28.468C90.805 28.24 91.099 28.06 91.447 27.928C91.795 27.784 92.203 27.712 92.671 27.712H93.787V29.584H91.951C91.231 29.584 90.643 29.8 90.187 30.232C89.731 30.652 89.503 31.222 89.503 31.942V35.416H92.869V37H85.075V35.416ZM100.098 37.216C99.39 37.216 98.754 37.102 98.19 36.874C97.626 36.646 97.152 36.322 96.768 35.902C96.384 35.482 96.09 34.978 95.886 34.39C95.682 33.79 95.58 33.118 95.58 32.374C95.58 31.63 95.682 30.958 95.886 30.358C96.102 29.758 96.396 29.248 96.768 28.828C97.152 28.396 97.614 28.066 98.154 27.838C98.694 27.61 99.294 27.496 99.954 27.496C100.602 27.496 101.19 27.61 101.718 27.838C102.246 28.054 102.696 28.366 103.068 28.774C103.44 29.182 103.722 29.668 103.914 30.232C104.118 30.796 104.22 31.42 104.22 32.104V32.842H97.56V33.148C97.56 33.88 97.788 34.48 98.244 34.948C98.7 35.404 99.33 35.632 100.134 35.632C100.734 35.632 101.244 35.506 101.664 35.254C102.096 34.99 102.444 34.642 102.708 34.21L103.932 35.29C103.62 35.83 103.14 36.286 102.492 36.658C101.856 37.03 101.058 37.216 100.098 37.216ZM99.954 28.99C99.606 28.99 99.282 29.05 98.982 29.17C98.694 29.29 98.442 29.464 98.226 29.692C98.022 29.908 97.86 30.166 97.74 30.466C97.62 30.766 97.56 31.096 97.56 31.456V31.582H102.222V31.402C102.222 30.67 102.012 30.088 101.592 29.656C101.184 29.212 100.638 28.99 99.954 28.99ZM110.711 37.216C109.703 37.216 108.833 37.054 108.101 36.73C107.381 36.406 106.799 35.974 106.355 35.434L107.561 34.354C107.969 34.798 108.425 35.14 108.929 35.38C109.445 35.608 110.051 35.722 110.747 35.722C111.383 35.722 111.893 35.614 112.277 35.398C112.673 35.182 112.871 34.846 112.871 34.39C112.871 34.198 112.835 34.036 112.763 33.904C112.691 33.772 112.589 33.664 112.457 33.58C112.325 33.496 112.169 33.43 111.989 33.382C111.821 33.334 111.641 33.298 111.449 33.274L109.973 33.04C109.613 32.992 109.247 32.914 108.875 32.806C108.503 32.698 108.167 32.548 107.867 32.356C107.579 32.152 107.339 31.894 107.147 31.582C106.967 31.27 106.877 30.874 106.877 30.394C106.877 29.446 107.237 28.726 107.957 28.234C108.689 27.742 109.649 27.496 110.837 27.496C111.701 27.496 112.445 27.628 113.069 27.892C113.705 28.144 114.233 28.498 114.653 28.954L113.555 30.106C113.315 29.83 112.973 29.578 112.529 29.35C112.085 29.11 111.497 28.99 110.765 28.99C109.457 28.99 108.803 29.404 108.803 30.232C108.803 30.628 108.941 30.904 109.217 31.06C109.505 31.204 109.841 31.3 110.225 31.348L111.701 31.582C112.073 31.642 112.439 31.72 112.799 31.816C113.171 31.912 113.501 32.062 113.789 32.266C114.089 32.458 114.329 32.71 114.509 33.022C114.701 33.334 114.797 33.73 114.797 34.21C114.797 35.146 114.431 35.884 113.699 36.424C112.979 36.952 111.983 37.216 110.711 37.216ZM121.504 37.216C120.496 37.216 119.626 37.054 118.894 36.73C118.174 36.406 117.592 35.974 117.148 35.434L118.354 34.354C118.762 34.798 119.218 35.14 119.722 35.38C120.238 35.608 120.844 35.722 121.54 35.722C122.176 35.722 122.686 35.614 123.07 35.398C123.466 35.182 123.664 34.846 123.664 34.39C123.664 34.198 123.628 34.036 123.556 33.904C123.484 33.772 123.382 33.664 123.25 33.58C123.118 33.496 122.962 33.43 122.782 33.382C122.614 33.334 122.434 33.298 122.242 33.274L120.766 33.04C120.406 32.992 120.04 32.914 119.668 32.806C119.296 32.698 118.96 32.548 118.66 32.356C118.372 32.152 118.132 31.894 117.94 31.582C117.76 31.27 117.67 30.874 117.67 30.394C117.67 29.446 118.03 28.726 118.75 28.234C119.482 27.742 120.442 27.496 121.63 27.496C122.494 27.496 123.238 27.628 123.862 27.892C124.498 28.144 125.026 28.498 125.446 28.954L124.348 30.106C124.108 29.83 123.766 29.578 123.322 29.35C122.878 29.11 122.29 28.99 121.558 28.99C120.25 28.99 119.596 29.404 119.596 30.232C119.596 30.628 119.734 30.904 120.01 31.06C120.298 31.204 120.634 31.3 121.018 31.348L122.494 31.582C122.866 31.642 123.232 31.72 123.592 31.816C123.964 31.912 124.294 32.062 124.582 32.266C124.882 32.458 125.122 32.71 125.302 33.022C125.494 33.334 125.59 33.73 125.59 34.21C125.59 35.146 125.224 35.884 124.492 36.424C123.772 36.952 122.776 37.216 121.504 37.216Z" fill="#111827"/>
<ellipse cx="218.5" cy="31" rx="31.5" ry="31" fill="#D9EAE1"/>
<ellipse cx="281.5" cy="31" rx="31.5" ry="31" fill="#66AB8A"/>
</svg>
