<svg width="313" height="62" viewBox="0 0 313 62" fill="none" xmlns="http://www.w3.org/2000/svg">
<path d="M0 31C0 13.8792 13.8792 0 31 0H187V62H31C13.8792 62 0 48.1208 0 31V31Z" fill="#D9EAE1"/>
<path d="M45.4352 37.216C44.6432 37.216 43.9532 37.072 43.3652 36.784C42.7892 36.484 42.3092 36.058 41.9252 35.506C41.5532 34.954 41.2772 34.276 41.0972 33.472C40.9172 32.668 40.8272 31.75 40.8272 30.718C40.8272 29.698 40.9172 28.786 41.0972 27.982C41.2772 27.166 41.5532 26.482 41.9252 25.93C42.3092 25.378 42.7892 24.958 43.3652 24.67C43.9532 24.37 44.6432 24.22 45.4352 24.22C46.2272 24.22 46.9112 24.37 47.4872 24.67C48.0752 24.958 48.5552 25.378 48.9272 25.93C49.3112 26.482 49.5932 27.166 49.7732 27.982C49.9532 28.786 50.0432 29.698 50.0432 30.718C50.0432 31.75 49.9532 32.668 49.7732 33.472C49.5932 34.276 49.3112 34.954 48.9272 35.506C48.5552 36.058 48.0752 36.484 47.4872 36.784C46.9112 37.072 46.2272 37.216 45.4352 37.216ZM45.4352 35.542C46.3352 35.542 46.9712 35.206 47.3432 34.534C47.7152 33.85 47.9012 32.926 47.9012 31.762V29.656C47.9012 28.504 47.7152 27.592 47.3432 26.92C46.9712 26.236 46.3352 25.894 45.4352 25.894C44.5352 25.894 43.8992 26.236 43.5272 26.92C43.1552 27.592 42.9692 28.504 42.9692 29.656V31.78C42.9692 32.932 43.1552 33.85 43.5272 34.534C43.8992 35.206 44.5352 35.542 45.4352 35.542ZM43.6352 23.014C43.1912 23.014 42.8792 22.924 42.6992 22.744C42.5192 22.564 42.4292 22.336 42.4292 22.06V21.718C42.4292 21.442 42.5192 21.214 42.6992 21.034C42.8792 20.854 43.1912 20.764 43.6352 20.764C44.0792 20.764 44.3912 20.854 44.5712 21.034C44.7512 21.214 44.8412 21.442 44.8412 21.718V22.06C44.8412 22.336 44.7512 22.564 44.5712 22.744C44.3912 22.924 44.0792 23.014 43.6352 23.014ZM47.2352 23.014C46.7912 23.014 46.4792 22.924 46.2992 22.744C46.1192 22.564 46.0292 22.336 46.0292 22.06V21.718C46.0292 21.442 46.1192 21.214 46.2992 21.034C46.4792 20.854 46.7912 20.764 47.2352 20.764C47.6792 20.764 47.9912 20.854 48.1712 21.034C48.3512 21.214 48.4412 21.442 48.4412 21.718V22.06C48.4412 22.336 48.3512 22.564 48.1712 22.744C47.9912 22.924 47.6792 23.014 47.2352 23.014ZM52.2501 27.712H54.2121V29.296H54.3201C54.5961 28.732 54.9621 28.294 55.4181 27.982C55.8741 27.658 56.4441 27.496 57.1281 27.496C58.2201 27.496 59.0901 27.904 59.7381 28.72C60.3861 29.536 60.7101 30.748 60.7101 32.356C60.7101 33.964 60.3861 35.176 59.7381 35.992C59.0901 36.808 58.2201 37.216 57.1281 37.216C56.4441 37.216 55.8741 37.06 55.4181 36.748C54.9621 36.424 54.5961 35.98 54.3201 35.416H54.2121V40.6H52.2501V27.712ZM56.3181 35.614C57.0621 35.614 57.6321 35.386 58.0281 34.93C58.4361 34.474 58.6401 33.868 58.6401 33.112V31.6C58.6401 30.844 58.4361 30.238 58.0281 29.782C57.6321 29.326 57.0621 29.098 56.3181 29.098C56.0301 29.098 55.7601 29.134 55.5081 29.206C55.2561 29.278 55.0341 29.386 54.8421 29.53C54.6501 29.674 54.4941 29.854 54.3741 30.07C54.2661 30.274 54.2121 30.52 54.2121 30.808V33.904C54.2121 34.192 54.2661 34.444 54.3741 34.66C54.4941 34.864 54.6501 35.038 54.8421 35.182C55.0341 35.326 55.2561 35.434 55.5081 35.506C55.7601 35.578 56.0301 35.614 56.3181 35.614ZM63.0431 27.712H65.0051V29.296H65.1131C65.3891 28.732 65.7551 28.294 66.2111 27.982C66.6671 27.658 67.2371 27.496 67.9211 27.496C69.0131 27.496 69.8831 27.904 70.5311 28.72C71.1791 29.536 71.5031 30.748 71.5031 32.356C71.5031 33.964 71.1791 35.176 70.5311 35.992C69.8831 36.808 69.0131 37.216 67.9211 37.216C67.2371 37.216 66.6671 37.06 66.2111 36.748C65.7551 36.424 65.3891 35.98 65.1131 35.416H65.0051V40.6H63.0431V27.712ZM67.1111 35.614C67.8551 35.614 68.4251 35.386 68.8211 34.93C69.2291 34.474 69.4331 33.868 69.4331 33.112V31.6C69.4331 30.844 69.2291 30.238 68.8211 29.782C68.4251 29.326 67.8551 29.098 67.1111 29.098C66.8231 29.098 66.5531 29.134 66.3011 29.206C66.0491 29.278 65.8271 29.386 65.6351 29.53C65.4431 29.674 65.2871 29.854 65.1671 30.07C65.0591 30.274 65.0051 30.52 65.0051 30.808V33.904C65.0051 34.192 65.0591 34.444 65.1671 34.66C65.2871 34.864 65.4431 35.038 65.6351 35.182C65.8271 35.326 66.0491 35.434 66.3011 35.506C66.5531 35.578 66.8231 35.614 67.1111 35.614ZM78.0121 37.216C77.3041 37.216 76.6681 37.102 76.1041 36.874C75.5401 36.646 75.0661 36.322 74.6821 35.902C74.2981 35.482 74.0041 34.978 73.8001 34.39C73.5961 33.79 73.4941 33.118 73.4941 32.374C73.4941 31.63 73.5961 30.958 73.8001 30.358C74.0161 29.758 74.3101 29.248 74.6821 28.828C75.0661 28.396 75.5281 28.066 76.0681 27.838C76.6081 27.61 77.2081 27.496 77.8681 27.496C78.5161 27.496 79.1041 27.61 79.6321 27.838C80.1601 28.054 80.6101 28.366 80.9821 28.774C81.3541 29.182 81.6361 29.668 81.8281 30.232C82.0321 30.796 82.1341 31.42 82.1341 32.104V32.842H75.4741V33.148C75.4741 33.88 75.7021 34.48 76.1581 34.948C76.6141 35.404 77.2441 35.632 78.0481 35.632C78.6481 35.632 79.1581 35.506 79.5781 35.254C80.0101 34.99 80.3581 34.642 80.6221 34.21L81.8461 35.29C81.5341 35.83 81.0541 36.286 80.4061 36.658C79.7701 37.03 78.9721 37.216 78.0121 37.216ZM77.8681 28.99C77.5201 28.99 77.1961 29.05 76.8961 29.17C76.6081 29.29 76.3561 29.464 76.1401 29.692C75.9361 29.908 75.7741 30.166 75.6541 30.466C75.5341 30.766 75.4741 31.096 75.4741 31.456V31.582H80.1361V31.402C80.1361 30.67 79.9261 30.088 79.5061 29.656C79.0981 29.212 78.5521 28.99 77.8681 28.99ZM89.165 37C88.349 37 87.749 36.784 87.365 36.352C86.981 35.908 86.789 35.338 86.789 34.642V29.296H83.927V27.712H85.961C86.309 27.712 86.555 27.646 86.699 27.514C86.843 27.37 86.915 27.118 86.915 26.758V24.436H88.751V27.712H92.711V29.296H88.751V35.416H92.711V37H89.165ZM99.958 37C99.142 37 98.542 36.784 98.158 36.352C97.774 35.908 97.582 35.338 97.582 34.642V29.296H94.72V27.712H96.754C97.102 27.712 97.348 27.646 97.492 27.514C97.636 27.37 97.708 27.118 97.708 26.758V24.436H99.544V27.712H103.504V29.296H99.544V35.416H103.504V37H99.958ZM110.769 26.02C110.265 26.02 109.911 25.918 109.707 25.714C109.515 25.51 109.419 25.258 109.419 24.958V24.58C109.419 24.28 109.515 24.028 109.707 23.824C109.911 23.62 110.259 23.518 110.751 23.518C111.255 23.518 111.603 23.62 111.795 23.824C111.999 24.028 112.101 24.28 112.101 24.58V24.958C112.101 25.258 111.999 25.51 111.795 25.714C111.603 25.918 111.261 26.02 110.769 26.02ZM106.611 35.416H109.779V29.296H106.611V27.712H111.741V35.416H114.711V37H106.611V35.416ZM123.002 35.416H122.894C122.618 35.98 122.252 36.424 121.796 36.748C121.34 37.06 120.77 37.216 120.086 37.216C118.994 37.216 118.124 36.808 117.476 35.992C116.828 35.176 116.504 33.964 116.504 32.356C116.504 30.748 116.828 29.536 117.476 28.72C118.124 27.904 118.994 27.496 120.086 27.496C120.77 27.496 121.34 27.658 121.796 27.982C122.252 28.294 122.618 28.732 122.894 29.296H123.002V23.68H124.964V37H123.002V35.416ZM120.896 35.614C121.184 35.614 121.454 35.578 121.706 35.506C121.958 35.434 122.18 35.326 122.372 35.182C122.564 35.038 122.714 34.864 122.822 34.66C122.942 34.444 123.002 34.192 123.002 33.904V30.808C123.002 30.52 122.942 30.274 122.822 30.07C122.714 29.854 122.564 29.674 122.372 29.53C122.18 29.386 121.958 29.278 121.706 29.206C121.454 29.134 121.184 29.098 120.896 29.098C120.152 29.098 119.576 29.326 119.168 29.782C118.772 30.238 118.574 30.844 118.574 31.6V33.112C118.574 33.868 118.772 34.474 119.168 34.93C119.576 35.386 120.152 35.614 120.896 35.614ZM131.977 37.216C131.269 37.216 130.633 37.102 130.069 36.874C129.505 36.646 129.031 36.322 128.647 35.902C128.263 35.482 127.969 34.978 127.765 34.39C127.561 33.79 127.459 33.118 127.459 32.374C127.459 31.63 127.561 30.958 127.765 30.358C127.981 29.758 128.275 29.248 128.647 28.828C129.031 28.396 129.493 28.066 130.033 27.838C130.573 27.61 131.173 27.496 131.833 27.496C132.481 27.496 133.069 27.61 133.597 27.838C134.125 28.054 134.575 28.366 134.947 28.774C135.319 29.182 135.601 29.668 135.793 30.232C135.997 30.796 136.099 31.42 136.099 32.104V32.842H129.439V33.148C129.439 33.88 129.667 34.48 130.123 34.948C130.579 35.404 131.209 35.632 132.013 35.632C132.613 35.632 133.123 35.506 133.543 35.254C133.975 34.99 134.323 34.642 134.587 34.21L135.811 35.29C135.499 35.83 135.019 36.286 134.371 36.658C133.735 37.03 132.937 37.216 131.977 37.216ZM131.833 28.99C131.485 28.99 131.161 29.05 130.861 29.17C130.573 29.29 130.321 29.464 130.105 29.692C129.901 29.908 129.739 30.166 129.619 30.466C129.499 30.766 129.439 31.096 129.439 31.456V31.582H134.101V31.402C134.101 30.67 133.891 30.088 133.471 29.656C133.063 29.212 132.517 28.99 131.833 28.99ZM138.54 35.416H141.006V29.296H138.54V27.712H142.968V30.178H143.076C143.16 29.854 143.28 29.542 143.436 29.242C143.592 28.942 143.79 28.684 144.03 28.468C144.27 28.24 144.564 28.06 144.912 27.928C145.26 27.784 145.668 27.712 146.136 27.712H147.252V29.584H145.416C144.696 29.584 144.108 29.8 143.652 30.232C143.196 30.652 142.968 31.222 142.968 31.942V35.416H146.334V37H138.54V35.416Z" fill="#111827"/>
<ellipse cx="218.5" cy="31" rx="31.5" ry="31" fill="#66AB8A"/>
<ellipse cx="281.5" cy="31" rx="31.5" ry="31" fill="#FFE7AA"/>
</svg>
