<svg width="26" height="26" viewBox="0 0 26 26" fill="none" xmlns="http://www.w3.org/2000/svg">
<path d="M13.0001 15.1667C15.3899 15.1667 17.3334 13.2232 17.3334 10.8333C17.3334 8.4435 15.3899 6.5 13.0001 6.5C10.6102 6.5 8.66675 8.4435 8.66675 10.8333C8.66675 13.2232 10.6102 15.1667 13.0001 15.1667ZM13.0001 8.66667C14.195 8.66667 15.1667 9.63842 15.1667 10.8333C15.1667 12.0283 14.195 13 13.0001 13C11.8052 13 10.8334 12.0283 10.8334 10.8333C10.8334 9.63842 11.8052 8.66667 13.0001 8.66667Z" fill="#6A91F4"/>
<path d="M12.3717 23.6318C12.555 23.7627 12.7747 23.8331 13 23.8331C13.2253 23.8331 13.445 23.7627 13.6283 23.6318C13.9577 23.3989 21.6981 17.81 21.6667 10.8333C21.6667 6.05471 17.7786 2.16663 13 2.16663C8.22143 2.16663 4.33335 6.05471 4.33335 10.8279C4.30193 17.81 12.0423 23.3989 12.3717 23.6318ZM13 4.33329C16.5848 4.33329 19.5 7.24854 19.5 10.8387C19.5228 15.6465 14.7463 19.9636 13 21.3795C11.2548 19.9625 6.47726 15.6444 6.50001 10.8333C6.50001 7.24854 9.41526 4.33329 13 4.33329Z" fill="#6A91F4"/>
</svg>
