<svg width="313" height="62" viewBox="0 0 313 62" fill="none" xmlns="http://www.w3.org/2000/svg">
<path d="M0 31C0 13.8792 13.8792 0 31 0H187V62H31C13.8792 62 0 48.1208 0 31V31Z" fill="#66AB8A"/>
<path d="M23.7412 37.216C22.6492 37.216 21.7312 37.024 20.9872 36.64C20.2432 36.256 19.6312 35.746 19.1512 35.11L20.4472 33.868C20.9272 34.444 21.4372 34.87 21.9772 35.146C22.5172 35.41 23.1292 35.542 23.8132 35.542C24.6052 35.542 25.2112 35.362 25.6312 35.002C26.0632 34.642 26.2792 34.126 26.2792 33.454C26.2792 32.914 26.1232 32.5 25.8112 32.212C25.4992 31.912 24.9652 31.696 24.2092 31.564L22.8412 31.348C22.2412 31.252 21.7372 31.096 21.3292 30.88C20.9212 30.652 20.5912 30.388 20.3392 30.088C20.0872 29.776 19.9012 29.434 19.7812 29.062C19.6732 28.678 19.6192 28.276 19.6192 27.856C19.6192 26.668 20.0032 25.768 20.7712 25.156C21.5392 24.532 22.5952 24.22 23.9392 24.22C24.9352 24.22 25.7812 24.382 26.4772 24.706C27.1852 25.018 27.7552 25.462 28.1872 26.038L26.9272 27.298C26.5792 26.878 26.1652 26.542 25.6852 26.29C25.2172 26.026 24.6352 25.894 23.9392 25.894C23.1952 25.894 22.6252 26.056 22.2292 26.38C21.8452 26.692 21.6532 27.154 21.6532 27.766C21.6532 28.282 21.8032 28.69 22.1032 28.99C22.4152 29.278 22.9612 29.488 23.7412 29.62L25.0732 29.854C26.2012 30.058 27.0232 30.472 27.5392 31.096C28.0552 31.708 28.3132 32.458 28.3132 33.346C28.3132 33.922 28.2112 34.45 28.0072 34.93C27.8152 35.41 27.5212 35.818 27.1252 36.154C26.7412 36.49 26.2612 36.754 25.6852 36.946C25.1212 37.126 24.4732 37.216 23.7412 37.216ZM34.6422 37.216C33.9582 37.216 33.3402 37.102 32.7882 36.874C32.2482 36.646 31.7862 36.322 31.4022 35.902C31.0302 35.482 30.7422 34.972 30.5382 34.372C30.3342 33.772 30.2322 33.1 30.2322 32.356C30.2322 31.612 30.3342 30.94 30.5382 30.34C30.7422 29.74 31.0302 29.23 31.4022 28.81C31.7862 28.39 32.2482 28.066 32.7882 27.838C33.3402 27.61 33.9582 27.496 34.6422 27.496C35.3262 27.496 35.9382 27.61 36.4782 27.838C37.0302 28.066 37.4922 28.39 37.8642 28.81C38.2482 29.23 38.5422 29.74 38.7462 30.34C38.9502 30.94 39.0522 31.612 39.0522 32.356C39.0522 33.1 38.9502 33.772 38.7462 34.372C38.5422 34.972 38.2482 35.482 37.8642 35.902C37.4922 36.322 37.0302 36.646 36.4782 36.874C35.9382 37.102 35.3262 37.216 34.6422 37.216ZM34.6422 35.668C35.3622 35.668 35.9322 35.452 36.3522 35.02C36.7842 34.576 37.0002 33.922 37.0002 33.058V31.654C37.0002 30.79 36.7842 30.142 36.3522 29.71C35.9322 29.266 35.3622 29.044 34.6422 29.044C33.9222 29.044 33.3462 29.266 32.9142 29.71C32.4942 30.142 32.2842 30.79 32.2842 31.654V33.058C32.2842 33.922 32.4942 34.576 32.9142 35.02C33.3462 35.452 33.9222 35.668 34.6422 35.668ZM45.7772 37.216C45.0812 37.216 44.4572 37.102 43.9052 36.874C43.3652 36.646 42.9032 36.322 42.5192 35.902C42.1472 35.482 41.8592 34.972 41.6552 34.372C41.4632 33.772 41.3672 33.1 41.3672 32.356C41.3672 31.612 41.4632 30.94 41.6552 30.34C41.8592 29.74 42.1472 29.23 42.5192 28.81C42.9032 28.39 43.3652 28.066 43.9052 27.838C44.4572 27.61 45.0752 27.496 45.7592 27.496C46.7192 27.496 47.4872 27.7 48.0632 28.108C48.6512 28.516 49.0892 29.044 49.3772 29.692L47.8472 30.52C47.6792 30.088 47.4212 29.746 47.0732 29.494C46.7372 29.242 46.2992 29.116 45.7592 29.116C45.0152 29.116 44.4392 29.344 44.0312 29.8C43.6232 30.244 43.4192 30.838 43.4192 31.582V33.13C43.4192 33.862 43.6232 34.456 44.0312 34.912C44.4392 35.368 45.0272 35.596 45.7952 35.596C46.3712 35.596 46.8392 35.464 47.1992 35.2C47.5712 34.936 47.8652 34.576 48.0812 34.12L49.5212 35.002C49.2212 35.65 48.7652 36.184 48.1532 36.604C47.5412 37.012 46.7492 37.216 45.7772 37.216ZM56.8041 26.02C56.3001 26.02 55.9461 25.918 55.7421 25.714C55.5501 25.51 55.4541 25.258 55.4541 24.958V24.58C55.4541 24.28 55.5501 24.028 55.7421 23.824C55.9461 23.62 56.2941 23.518 56.7861 23.518C57.2901 23.518 57.6381 23.62 57.8301 23.824C58.0341 24.028 58.1361 24.28 58.1361 24.58V24.958C58.1361 25.258 58.0341 25.51 57.8301 25.714C57.6381 25.918 57.2961 26.02 56.8041 26.02ZM52.6461 35.416H55.8141V29.296H52.6461V27.712H57.7761V35.416H60.7461V37H52.6461V35.416ZM70.4771 37C69.9131 37 69.4871 36.856 69.1991 36.568C68.9231 36.28 68.7551 35.902 68.6951 35.434H68.6051C68.4251 35.998 68.0951 36.436 67.6151 36.748C67.1471 37.06 66.5471 37.216 65.8151 37.216C64.8671 37.216 64.1111 36.97 63.5471 36.478C62.9831 35.974 62.7011 35.284 62.7011 34.408C62.7011 33.508 63.0311 32.824 63.6911 32.356C64.3631 31.876 65.3891 31.636 66.7691 31.636H68.5511V30.916C68.5511 29.656 67.8851 29.026 66.5531 29.026C65.9531 29.026 65.4671 29.146 65.0951 29.386C64.7231 29.614 64.4111 29.92 64.1591 30.304L62.9891 29.35C63.2531 28.846 63.6971 28.414 64.3211 28.054C64.9451 27.682 65.7491 27.496 66.7331 27.496C67.9091 27.496 68.8331 27.778 69.5051 28.342C70.1771 28.906 70.5131 29.722 70.5131 30.79V35.452H71.6831V37H70.4771ZM66.3731 35.776C67.0091 35.776 67.5311 35.632 67.9391 35.344C68.3471 35.056 68.5511 34.684 68.5511 34.228V32.878H66.8051C65.3891 32.878 64.6811 33.304 64.6811 34.156V34.516C64.6811 34.936 64.8311 35.254 65.1311 35.47C65.4311 35.674 65.8451 35.776 66.3731 35.776ZM73.7641 35.416H76.8421V25.264H73.7641V23.68H78.8041V35.416H81.8821V37H73.7641V35.416ZM92.063 37C91.499 37 91.073 36.856 90.785 36.568C90.509 36.28 90.341 35.902 90.281 35.434H90.191C90.011 35.998 89.681 36.436 89.201 36.748C88.733 37.06 88.133 37.216 87.401 37.216C86.453 37.216 85.697 36.97 85.133 36.478C84.569 35.974 84.287 35.284 84.287 34.408C84.287 33.508 84.617 32.824 85.277 32.356C85.949 31.876 86.975 31.636 88.355 31.636H90.137V30.916C90.137 29.656 89.471 29.026 88.139 29.026C87.539 29.026 87.053 29.146 86.681 29.386C86.309 29.614 85.997 29.92 85.745 30.304L84.575 29.35C84.839 28.846 85.283 28.414 85.907 28.054C86.531 27.682 87.335 27.496 88.319 27.496C89.495 27.496 90.419 27.778 91.091 28.342C91.763 28.906 92.099 29.722 92.099 30.79V35.452H93.269V37H92.063ZM87.959 35.776C88.595 35.776 89.117 35.632 89.525 35.344C89.933 35.056 90.137 34.684 90.137 34.228V32.878H88.391C86.975 32.878 86.267 33.304 86.267 34.156V34.516C86.267 34.936 86.417 35.254 86.717 35.47C87.017 35.674 87.431 35.776 87.959 35.776ZM105.585 37V27.712H107.259V28.918H107.349C107.493 28.522 107.697 28.186 107.961 27.91C108.237 27.634 108.627 27.496 109.131 27.496C109.623 27.496 110.001 27.634 110.265 27.91C110.541 28.174 110.715 28.54 110.787 29.008H110.859C111.027 28.588 111.261 28.234 111.561 27.946C111.861 27.646 112.293 27.496 112.857 27.496C113.577 27.496 114.075 27.748 114.351 28.252C114.639 28.756 114.783 29.494 114.783 30.466V37H113.109V30.718C113.109 30.07 113.031 29.626 112.875 29.386C112.719 29.134 112.467 29.008 112.119 29.008C111.807 29.008 111.543 29.116 111.327 29.332C111.123 29.536 111.021 29.848 111.021 30.268V37H109.347V30.718C109.347 30.07 109.269 29.626 109.113 29.386C108.969 29.134 108.723 29.008 108.375 29.008C108.051 29.008 107.781 29.116 107.565 29.332C107.361 29.536 107.259 29.848 107.259 30.268V37H105.585ZM121.184 37.216C120.476 37.216 119.84 37.102 119.276 36.874C118.712 36.646 118.238 36.322 117.854 35.902C117.47 35.482 117.176 34.978 116.972 34.39C116.768 33.79 116.666 33.118 116.666 32.374C116.666 31.63 116.768 30.958 116.972 30.358C117.188 29.758 117.482 29.248 117.854 28.828C118.238 28.396 118.7 28.066 119.24 27.838C119.78 27.61 120.38 27.496 121.04 27.496C121.688 27.496 122.276 27.61 122.804 27.838C123.332 28.054 123.782 28.366 124.154 28.774C124.526 29.182 124.808 29.668 125 30.232C125.204 30.796 125.306 31.42 125.306 32.104V32.842H118.646V33.148C118.646 33.88 118.874 34.48 119.33 34.948C119.786 35.404 120.416 35.632 121.22 35.632C121.82 35.632 122.33 35.506 122.75 35.254C123.182 34.99 123.53 34.642 123.794 34.21L125.018 35.29C124.706 35.83 124.226 36.286 123.578 36.658C122.942 37.03 122.144 37.216 121.184 37.216ZM121.04 28.99C120.692 28.99 120.368 29.05 120.068 29.17C119.78 29.29 119.528 29.464 119.312 29.692C119.108 29.908 118.946 30.166 118.826 30.466C118.706 30.766 118.646 31.096 118.646 31.456V31.582H123.308V31.402C123.308 30.67 123.098 30.088 122.678 29.656C122.27 29.212 121.724 28.99 121.04 28.99ZM133.795 35.416H133.687C133.411 35.98 133.045 36.424 132.589 36.748C132.133 37.06 131.563 37.216 130.879 37.216C129.787 37.216 128.917 36.808 128.269 35.992C127.621 35.176 127.297 33.964 127.297 32.356C127.297 30.748 127.621 29.536 128.269 28.72C128.917 27.904 129.787 27.496 130.879 27.496C131.563 27.496 132.133 27.658 132.589 27.982C133.045 28.294 133.411 28.732 133.687 29.296H133.795V23.68H135.757V37H133.795V35.416ZM131.689 35.614C131.977 35.614 132.247 35.578 132.499 35.506C132.751 35.434 132.973 35.326 133.165 35.182C133.357 35.038 133.507 34.864 133.615 34.66C133.735 34.444 133.795 34.192 133.795 33.904V30.808C133.795 30.52 133.735 30.274 133.615 30.07C133.507 29.854 133.357 29.674 133.165 29.53C132.973 29.386 132.751 29.278 132.499 29.206C132.247 29.134 131.977 29.098 131.689 29.098C130.945 29.098 130.369 29.326 129.961 29.782C129.565 30.238 129.367 30.844 129.367 31.6V33.112C129.367 33.868 129.565 34.474 129.961 34.93C130.369 35.386 130.945 35.614 131.689 35.614ZM143.148 26.02C142.644 26.02 142.29 25.918 142.086 25.714C141.894 25.51 141.798 25.258 141.798 24.958V24.58C141.798 24.28 141.894 24.028 142.086 23.824C142.29 23.62 142.638 23.518 143.13 23.518C143.634 23.518 143.982 23.62 144.174 23.824C144.378 24.028 144.48 24.28 144.48 24.58V24.958C144.48 25.258 144.378 25.51 144.174 25.714C143.982 25.918 143.64 26.02 143.148 26.02ZM138.99 35.416H142.158V29.296H138.99V27.712H144.12V35.416H147.09V37H138.99V35.416ZM153.563 37.216C152.855 37.216 152.219 37.102 151.655 36.874C151.091 36.646 150.617 36.322 150.233 35.902C149.849 35.482 149.555 34.978 149.351 34.39C149.147 33.79 149.045 33.118 149.045 32.374C149.045 31.63 149.147 30.958 149.351 30.358C149.567 29.758 149.861 29.248 150.233 28.828C150.617 28.396 151.079 28.066 151.619 27.838C152.159 27.61 152.759 27.496 153.419 27.496C154.067 27.496 154.655 27.61 155.183 27.838C155.711 28.054 156.161 28.366 156.533 28.774C156.905 29.182 157.187 29.668 157.379 30.232C157.583 30.796 157.685 31.42 157.685 32.104V32.842H151.025V33.148C151.025 33.88 151.253 34.48 151.709 34.948C152.165 35.404 152.795 35.632 153.599 35.632C154.199 35.632 154.709 35.506 155.129 35.254C155.561 34.99 155.909 34.642 156.173 34.21L157.397 35.29C157.085 35.83 156.605 36.286 155.957 36.658C155.321 37.03 154.523 37.216 153.563 37.216ZM153.419 28.99C153.071 28.99 152.747 29.05 152.447 29.17C152.159 29.29 151.907 29.464 151.691 29.692C151.487 29.908 151.325 30.166 151.205 30.466C151.085 30.766 151.025 31.096 151.025 31.456V31.582H155.687V31.402C155.687 30.67 155.477 30.088 155.057 29.656C154.649 29.212 154.103 28.99 153.419 28.99ZM160.126 35.416H162.592V29.296H160.126V27.712H164.554V30.178H164.662C164.746 29.854 164.866 29.542 165.022 29.242C165.178 28.942 165.376 28.684 165.616 28.468C165.856 28.24 166.15 28.06 166.498 27.928C166.846 27.784 167.254 27.712 167.722 27.712H168.838V29.584H167.002C166.282 29.584 165.694 29.8 165.238 30.232C164.782 30.652 164.554 31.222 164.554 31.942V35.416H167.92V37H160.126V35.416Z" fill="#111827"/>
<ellipse cx="218.5" cy="31" rx="31.5" ry="31" fill="#66AB8A"/>
<ellipse cx="281.5" cy="31" rx="31.5" ry="31" fill="#FFDD85"/>
</svg>
